<svg width="79" height="74" viewBox="0 0 79 74" fill="none" xmlns="http://www.w3.org/2000/svg">
<ellipse cx="39.611" cy="37" rx="39.0055" ry="37" fill="#F58053"/>
<path d="M26.6778 35.1355C31.1782 35.1355 35.4943 36.9148 38.6766 40.082C41.8589 43.2492 43.6467 47.5448 43.6467 52.0239" stroke="#FFD4AC" stroke-width="4" stroke-linecap="round" stroke-linejoin="round"/>
<path d="M26.6778 22C34.6786 22 42.3516 25.1632 48.009 30.7938C53.6664 36.4244 56.8447 44.0611 56.8447 52.0239" stroke="#FFD4AC" stroke-width="4" stroke-linecap="round" stroke-linejoin="round"/>
<path d="M28.5632 52.0229C29.6045 52.0229 30.4487 51.183 30.4487 50.1469C30.4487 49.1107 29.6045 48.2708 28.5632 48.2708C27.5219 48.2708 26.6778 49.1107 26.6778 50.1469C26.6778 51.183 27.5219 52.0229 28.5632 52.0229Z" stroke="#FFD4AC" stroke-width="4" stroke-linecap="round" stroke-linejoin="round"/>
</svg>
