<svg width="79" height="74" viewBox="0 0 79 74" fill="none" xmlns="http://www.w3.org/2000/svg">
<ellipse cx="39.611" cy="37" rx="39.0055" ry="37" fill="#F58053"/>
<path d="M56.8586 48.6879C56.8586 49.5727 56.4878 50.4212 55.8278 51.0468C55.1678 51.6725 54.2726 52.0239 53.3391 52.0239H25.1834C24.2499 52.0239 23.3548 51.6725 22.6947 51.0468C22.0347 50.4212 21.6639 49.5727 21.6639 48.6879V25.336C21.6639 24.4512 22.0347 23.6027 22.6947 22.9771C23.3548 22.3515 24.2499 22 25.1834 22H33.982L37.5015 27.004H53.3391C54.2726 27.004 55.1678 27.3555 55.8278 27.9811C56.4878 28.6067 56.8586 29.4552 56.8586 30.34V48.6879Z" stroke="#FFD4AC" stroke-width="4" stroke-linecap="round" stroke-linejoin="round"/>
</svg>
