<svg width="79" height="74" viewBox="0 0 79 74" fill="none" xmlns="http://www.w3.org/2000/svg">
<ellipse cx="39.8472" cy="37" rx="39.0055" ry="37" fill="#F58053"/>
<path d="M51.7234 34.7625H28.2602C26.409 34.7625 24.9083 36.3307 24.9083 38.2652V50.525C24.9083 52.4596 26.409 54.0278 28.2602 54.0278H51.7234C53.5746 54.0278 55.0753 52.4596 55.0753 50.525V38.2652C55.0753 36.3307 53.5746 34.7625 51.7234 34.7625Z" stroke="#FFD4AC" stroke-width="4" stroke-linecap="round" stroke-linejoin="round"/>
<path d="M31.6121 34.7625V27.7569C31.6121 25.4344 32.495 23.2071 34.0665 21.5648C35.638 19.9226 37.7694 19 39.9918 19C42.2142 19 44.3457 19.9226 45.9172 21.5648C47.4887 23.2071 48.3715 25.4344 48.3715 27.7569V34.7625" stroke="#FFD4AC" stroke-width="4" stroke-linecap="round" stroke-linejoin="round"/>
</svg>
