<svg width="75" height="74" viewBox="0 0 75 74" fill="none" xmlns="http://www.w3.org/2000/svg">
<path d="M11.4508 44.4002V74.0002H0.335338V44.4002H11.4508ZM74.4381 44.4002V74.0002H63.3227V44.4002H74.4381ZM26.4957 6.86787L29.431 12.9811C29.6713 13.4784 29.6878 14.0545 29.4764 14.5648C29.2649 15.0751 28.8455 15.471 28.3235 15.6533C18.4699 19.1478 11.4446 28.1799 11.4446 38.7721V40.7105H0.329163V38.7721C0.329163 23.7666 10.1848 10.9605 24.0729 5.88326C25.0139 5.53828 26.0633 5.96474 26.4957 6.86787ZM50.6902 5.85653C64.5824 10.9502 74.4381 23.7625 74.4381 38.7619V40.7002H63.3227V38.7619C63.3227 28.1696 56.3056 19.1395 46.4437 15.643C45.9217 15.4607 45.5024 15.0648 45.2909 14.5545C45.0794 14.0443 45.0959 13.4682 45.3363 12.9708L48.2675 6.84114C48.6998 5.93802 49.7492 5.51155 50.6902 5.85653Z" fill="#465C5E"/>
<path d="M37.3867 17.6182C49.6631 17.6182 59.6175 27.084 59.6175 38.7616V74H48.5021V38.7616C48.5021 32.9218 43.5249 28.1899 37.3867 28.1899C31.2485 28.1899 26.2713 32.9177 26.2713 38.7616V74H15.1559V38.7616C15.1559 27.084 25.1104 17.6182 37.3867 17.6182ZM44.4388 0.476894C45.0538 0.560525 45.5919 0.932207 45.8872 1.47735C46.1826 2.0225 46.1996 2.67565 45.9332 3.23545L45.4001 4.34956L41.273 12.9829C40.9278 13.6951 40.1867 14.1292 39.3957 14.0826C38.7302 14.0456 38.0605 14.0271 37.3867 14.0271C36.7136 14.0271 36.0426 14.0456 35.3777 14.0826C34.5872 14.1295 33.8466 13.6951 33.5025 12.9829L29.3733 4.34956L28.8402 3.23545C28.5738 2.67565 28.5909 2.0225 28.8862 1.47735C29.1815 0.932207 29.7196 0.560525 30.3346 0.476894C35.0144 -0.158965 39.759 -0.158965 44.4388 0.476894Z" fill="#465C5E"/>
</svg>
