<svg width="83" height="82" viewBox="0 0 83 82" fill="none" xmlns="http://www.w3.org/2000/svg">
<g clip-path="url(#clip0)">
<path d="M32.8406 35.6871L20.2431 40.9266L1 29.8746L12.0951 11.0518L31.1649 22.1037L32.8406 35.6871ZM51.4039 46.2404L53.0085 59.7495L72.0782 70.8014L83 51.9786L63.7569 40.9266L51.4039 46.2404Z" fill="#465C5E"/>
<path d="M42.0867 51.1158L53.0085 59.7497V81.8536H31.1649V59.7497L42.0867 51.1158ZM53.0085 22.1039V0H31.1649V22.1039L42.0867 30.8485L53.0085 22.1039Z" fill="#465C5E"/>
<path d="M51.4039 36.164L53.0085 22.1037L72.0782 11.0518L83 29.8746L63.7569 40.9266L51.4039 36.164ZM20.2431 40.9266L1 51.9786L11.9218 70.8014L31.1649 59.7495L34.3474 46.215L20.2431 40.9266Z" fill="#465C5E"/>
<path d="M53.0085 34.71L63.7569 40.9267L53.0085 47.1434L50.8942 40.9267L53.0085 34.71ZM31.1649 34.71L20.2431 40.9267L31.1649 47.1434L33.5927 40.9267L31.1649 34.71Z" fill="#465C5E"/>
<path d="M42.0867 28.3207L53.0085 22.104V34.7102L45.8019 33.4507L42.0867 28.3207ZM31.1649 47.1436V59.7498L42.0867 53.533L38.2612 47.6316L31.1649 47.1436Z" fill="#465C5E"/>
<path d="M53.0085 47.1436V59.7498L42.0867 53.533L46.4748 48.7468L53.0085 47.1436ZM42.0867 28.3207L31.1649 22.104V34.7102L38.3306 33.5363L42.0867 28.3207Z" fill="#465C5E"/>
<path d="M42.0867 28.3208L31.1649 34.7102V47.1437L42.0867 53.5331L53.0085 47.1437V34.7102L42.0867 28.3208Z" fill="#465C5E"/>
</g>
<defs>
<clipPath id="clip0">
<rect width="82.1139" height="82" fill="white"/>
</clipPath>
</defs>
</svg>
