<svg width="83" height="64" viewBox="0 0 83 64" fill="none" xmlns="http://www.w3.org/2000/svg">
<path d="M70.264 5.32758C64.9371 2.83873 59.2414 1.02994 53.2867 0C52.5554 1.32035 51.701 3.09624 51.1119 4.50896C44.7819 3.55833 38.5101 3.55833 32.2965 4.50896C31.7075 3.09624 30.8337 1.32035 30.0959 0C24.1347 1.02994 18.4325 2.84538 13.1056 5.34075C2.36129 21.5543 -0.551312 37.3651 0.904994 52.9514C8.03118 58.2657 14.9373 61.494 21.7269 63.6065C23.4033 61.3025 24.8984 58.8533 26.1864 56.2721C23.7334 55.3413 21.3839 54.1926 19.1639 52.8591C19.7528 52.4233 20.3289 51.9678 20.8855 51.4991C34.4259 57.8235 49.1378 57.8235 62.5164 51.4991C63.0796 51.9678 63.6555 52.4233 64.2381 52.8591C62.0115 54.1991 59.6556 55.3478 57.2026 56.2787C58.4906 58.8533 59.9792 61.3091 61.6621 63.613C68.4582 61.5005 75.3707 58.2724 82.4969 52.9514C84.2057 34.8829 79.5779 19.2173 70.264 5.32758ZM28.0311 43.366C23.9664 43.366 20.633 39.5766 20.633 34.9621C20.633 30.3476 23.8952 26.5517 28.0311 26.5517C32.1671 26.5517 35.5003 30.341 35.4292 34.9621C35.4356 39.5766 32.1671 43.366 28.0311 43.366ZM55.3708 43.366C51.3062 43.366 47.9728 39.5766 47.9728 34.9621C47.9728 30.3476 51.2349 26.5517 55.3708 26.5517C59.5067 26.5517 62.8401 30.341 62.7689 34.9621C62.7689 39.5766 59.5067 43.366 55.3708 43.366Z" fill="#465C5E"/>
</svg>
