<svg width="166" height="58" viewBox="0 0 166 58" fill="none" xmlns="http://www.w3.org/2000/svg">
<path d="M148.771 57.5387C144.347 57.5387 140.177 55.8122 137.042 52.6809L112.617 28.2901C110.159 25.8358 108.549 22.7722 107.973 19.4377C107.634 17.4912 107.651 15.4939 108.024 13.5474H100.803C99.0403 13.5474 98.2945 14.7153 98.0063 15.4093C97.7182 16.1032 97.4131 17.4573 98.6674 18.7099L109.227 29.2549C111.685 31.7092 113.295 34.7729 113.871 38.1074C114.414 41.188 114.041 44.3701 112.837 47.3153C111.617 50.2435 109.617 52.7486 107.058 54.5597C104.278 56.5062 100.989 57.5387 97.5148 57.5387H97.1758C92.7519 57.5387 88.5823 55.8122 85.4466 52.6809L83.1075 50.3451C81.9888 51.9869 80.5989 53.4087 78.9717 54.5428C76.192 56.4893 72.9037 57.5218 69.429 57.5218C65.0051 57.5218 60.8355 55.7953 57.6998 52.664L19.3933 14.4106C18.817 13.8351 18.0543 13.5304 17.2576 13.5304C15.4949 13.5304 14.7491 14.6983 14.4609 15.3923C14.1728 16.0863 13.8677 17.4404 15.122 18.6929L25.6817 29.238C28.1394 31.6923 29.7496 34.756 30.3259 38.0904C30.8683 41.171 30.4954 44.3532 29.292 47.2983C28.0716 50.2266 26.0715 52.7317 23.5121 54.5428C20.7323 56.4893 17.4441 57.5218 13.9694 57.5218H9.13869C5.39279 57.5218 2.35878 54.492 2.35878 50.7513C2.35878 47.0106 5.39279 43.9808 9.13869 43.9808H13.9016C15.6643 43.9808 16.4101 42.8129 16.6983 42.1189C16.9864 41.4249 17.2915 40.0708 16.0372 38.8183L5.49449 28.2901C3.03677 25.8358 1.42654 22.7722 0.850248 19.4377C0.307856 16.3571 0.68075 13.175 1.88418 10.2298C3.10457 7.30157 5.10464 4.79648 7.66406 2.98537C10.4438 1.03885 13.749 0.00635244 17.2237 0.00635244C21.6476 0.00635244 25.8173 1.73283 28.953 4.86419L67.2595 43.1175C67.8357 43.693 68.5985 43.9977 69.3951 43.9977C71.1579 43.9977 71.9037 42.8298 72.1918 42.1358C72.48 41.4418 72.7851 40.0877 71.5477 38.8521L44.2247 11.567C41.5805 8.92649 41.5805 4.64415 44.2247 1.98673C46.8689 -0.670698 51.1572 -0.653772 53.8183 1.98673L81.1244 29.2549C81.1413 29.2719 81.1413 29.2719 81.1583 29.2888L95.0062 43.1175C95.5825 43.693 96.3453 43.9977 97.1419 43.9977H97.4809C99.2437 43.9977 99.9895 42.8298 100.278 42.1358C100.566 41.4418 100.871 40.0877 99.6166 38.8352L89.0738 28.2901C86.6161 25.8358 85.0059 22.7722 84.4296 19.4377C83.8872 16.3571 84.2601 13.175 85.4635 10.2298C86.6839 7.30157 88.684 4.79648 91.2434 2.98537C94.0231 1.03885 97.3283 0.00635244 100.803 0.00635244H128.414C132.16 0.00635244 135.194 3.03615 135.194 6.77686C135.194 10.5176 132.16 13.5474 128.414 13.5474H124.346C122.583 13.5474 121.838 14.7153 121.55 15.4093C121.261 16.1032 120.956 17.4573 122.211 18.7099L146.635 43.1006C147.212 43.6761 147.974 43.9808 148.771 43.9808C150.313 43.9808 151.568 42.7282 151.568 41.188C151.568 37.4472 154.602 34.4174 158.348 34.4174C162.093 34.4174 165.127 37.4472 165.127 41.188C165.144 50.2096 157.788 57.5387 148.771 57.5387Z" fill="#465C5E"/>
<path d="M148.771 51.6147C145.923 51.6147 143.245 50.5144 141.228 48.5002L116.804 24.1095C113.702 21.012 112.82 16.5604 114.498 12.515C115.363 10.45 116.77 8.77428 118.516 7.64022H100.803C97.108 7.64022 93.9384 9.756 92.5146 13.1582C91.0908 16.5604 91.8536 20.3011 94.4639 22.9077L105.024 33.4528C108.125 36.5503 109.007 41.0019 107.329 45.0473C105.651 49.0926 101.871 51.6147 97.4809 51.6147H97.1419C94.2943 51.6147 91.6163 50.5144 89.5993 48.5002L79.8531 38.7676C80.2938 40.8157 80.0904 42.9823 79.243 45.0473C77.5649 49.0926 73.7851 51.6147 69.3951 51.6147C66.5476 51.6147 63.8695 50.5144 61.8525 48.5002L23.546 10.2469C21.851 8.55423 19.5967 7.62329 17.2068 7.62329C13.5117 7.62329 10.3421 9.73907 8.91835 13.1413C7.51152 16.5434 8.25731 20.2841 10.8676 22.8908L21.4273 33.4358C24.5291 36.5333 25.4105 40.985 23.7325 45.0303C22.0544 49.0757 18.2746 51.5977 13.8846 51.5977H9.1387C8.66411 51.5977 8.29121 51.2253 8.29121 50.7514C8.29121 50.2775 8.66411 49.9051 9.1387 49.9051H13.9016C17.5966 49.9051 20.7662 47.7893 22.19 44.3871C23.6138 40.985 22.8511 37.2443 20.2408 34.6376L9.68109 24.0925C6.57928 21.012 5.6979 16.5604 7.37592 12.515C9.05395 8.45268 12.8168 5.93066 17.2237 5.93066C20.0713 5.93066 22.7494 7.03087 24.7664 9.0451L63.0729 47.2985C64.7679 48.9911 67.0222 49.922 69.4121 49.922C73.1071 49.922 76.2767 47.8062 77.7005 44.4041C79.1074 41.0019 78.3785 37.2781 75.7682 34.6715L48.4283 7.38632C48.0893 7.0478 48.0893 6.52308 48.4283 6.18456C48.7673 5.84603 49.2927 5.84603 49.6317 6.18456L76.9378 33.4528L76.9547 33.4697L90.8027 47.2985C92.4977 48.9911 94.752 49.922 97.1419 49.922H97.4809C101.176 49.922 104.346 47.8062 105.769 44.4041C107.176 41.0019 106.43 37.2612 103.82 34.6545L93.2604 24.1095C90.1586 21.012 89.2772 16.5604 90.9552 12.515C92.6333 8.4696 96.4131 5.94759 100.803 5.94759H128.414C128.889 5.94759 129.262 6.31997 129.262 6.7939C129.262 7.26784 128.889 7.64022 128.414 7.64022H124.346C120.651 7.64022 117.482 9.756 116.058 13.1582C114.651 16.5604 115.397 20.3011 118.007 22.9077L142.432 47.2985C144.127 48.9911 146.381 49.922 148.771 49.922C153.585 49.922 157.5 46.0121 157.5 41.205C157.5 40.7311 157.873 40.3587 158.348 40.3587C158.822 40.3587 159.195 40.7311 159.195 41.205C159.212 46.943 154.534 51.6147 148.771 51.6147Z" fill="#465C5E"/>
</svg>
