<svg width="79" height="74" viewBox="0 0 79 74" fill="none" xmlns="http://www.w3.org/2000/svg">
<ellipse cx="39.836" cy="37" rx="39.0055" ry="37" fill="#F58053"/>
<path d="M47.4849 52.0239V48.6879C47.4849 46.9184 46.8108 45.2213 45.6107 43.9701C44.4107 42.7188 42.783 42.0159 41.0859 42.0159H28.2879C26.5908 42.0159 24.9632 42.7188 23.7631 43.9701C22.5631 45.2213 21.8889 46.9184 21.8889 48.6879V52.0239" stroke="#FFD4AC" stroke-width="4" stroke-linecap="round" stroke-linejoin="round"/>
<path d="M34.687 35.344C38.2211 35.344 41.086 32.3568 41.086 28.672C41.086 24.9872 38.2211 22 34.687 22C31.1529 22 28.288 24.9872 28.288 28.672C28.288 32.3568 31.1529 35.344 34.687 35.344Z" stroke="#FFD4AC" stroke-width="4" stroke-linecap="round" stroke-linejoin="round"/>
<path d="M57.0837 52.0239V48.6879C57.0826 47.2096 56.6107 45.7735 55.742 44.6051C54.8734 43.4367 53.6572 42.6022 52.2844 42.2327" stroke="#FFD4AC" stroke-width="4" stroke-linecap="round" stroke-linejoin="round"/>
<path d="M45.8853 22.2168C47.2617 22.5843 48.4817 23.4189 49.353 24.5892C50.2242 25.7595 50.6971 27.1988 50.6971 28.6803C50.6971 30.1618 50.2242 31.6011 49.353 32.7714C48.4817 33.9417 47.2617 34.7763 45.8853 35.1438" stroke="#FFD4AC" stroke-width="4" stroke-linecap="round" stroke-linejoin="round"/>
</svg>
